<svg width="1280" height="720" xmlns="http://www.w3.org/2000/svg" xmlns:xlink="http://www.w3.org/1999/xlink" overflow="hidden"><defs><clipPath id="clip0"><rect x="0" y="0" width="1280" height="720"/></clipPath></defs><g clip-path="url(#clip0)"><rect x="0" y="0" width="1280" height="720" fill="#FFFFFF"/><rect x="113.5" y="134.5" width="1060" height="452" stroke="#2F528F" stroke-width="1.33333" stroke-miterlimit="8" fill="#D0CECE"/><path d="M798.5 360.5 986 134.5 1173.5 360.5 986 586.5Z" stroke="#000000" stroke-width="1.33333" stroke-miterlimit="8" fill="#E7E6E6" fill-rule="evenodd"/><path d="M113.5 134.5 305.504 134.5 497.5 360.5 305.504 586.5 113.5 586.5Z" stroke="#000000" stroke-width="1.33333" stroke-miterlimit="8" fill="#E7E6E6" fill-rule="evenodd"/><path d="M308.5 134.5 985.883 134.5" stroke="#000000" stroke-width="1.33333" stroke-miterlimit="8" fill="none" fill-rule="evenodd"/><path d="M308.5 586.5 985.883 586.5" stroke="#000000" stroke-width="1.33333" stroke-miterlimit="8" fill="none" fill-rule="evenodd"/><rect x="113" y="210" width="94" height="303" stroke="#000000" stroke-width="2" stroke-miterlimit="8" fill="none"/><path d="M160.5 210.5 160.5 513.22" stroke="#000000" stroke-width="1.33333" stroke-miterlimit="8" fill="none" fill-rule="evenodd"/><text font-family="SimHei,SimHei_MSFontService,sans-serif" font-weight="700" font-size="24" writing-mode="tb-rl" transform="translate(127.4 299)" x="8.625" y="3.5625">智能合约</text><text font-family="SimHei,SimHei_MSFontService,sans-serif" font-weight="700" font-size="24" transform="matrix(6.12323e-17 1 -1 6.12323e-17 127.4 394)">A</text><text font-family="DengXian,DengXian_MSFontService,sans-serif" font-weight="700" font-size="16" writing-mode="tb-rl" transform="translate(178.467 301)" x="4.625" y="3.375">调用智能合约</text><text font-family="DengXian,DengXian_MSFontService,sans-serif" font-weight="700" font-size="16" transform="matrix(6.12323e-17 1 -1 6.12323e-17 178.467 397)">C</text><path d="M0 0 11.2714 0 11.2714 0.129239 22.5427 0.129239" stroke="#000000" stroke-width="4" stroke-miterlimit="8" fill="none" fill-rule="evenodd" transform="matrix(1 0 0 -1 207 361.129)"/><text font-family="Arial,Arial_MSFontService,sans-serif" font-weight="400" font-size="16" transform="translate(238.944 336)">•</text><text font-family="SimHei,SimHei_MSFontService,sans-serif" font-weight="400" font-size="16" transform="translate(256.944 336)">币安智能链相</text><text font-family="SimHei,SimHei_MSFontService,sans-serif" font-weight="400" font-size="16" transform="translate(256.944 355)">关信息</text><text font-family="Arial,Arial_MSFontService,sans-serif" font-weight="400" font-size="16" transform="translate(238.944 378)">•</text><text font-family="SimHei,SimHei_MSFontService,sans-serif" font-weight="400" font-size="16" transform="translate(256.944 378)">合约</text><text font-family="SimHei,SimHei_MSFontService,sans-serif" font-weight="400" font-size="16" transform="translate(288.944 378)">C</text><text font-family="SimHei,SimHei_MSFontService,sans-serif" font-weight="400" font-size="16" transform="translate(296.944 378)">地址</text><text font-family="Arial,Arial_MSFontService,sans-serif" font-weight="400" font-size="16" transform="translate(238.944 401)">•</text><text font-family="SimHei,SimHei_MSFontService,sans-serif" font-weight="400" font-size="16" transform="translate(256.944 401)">函数参数</text><text font-family="Arial,Arial_MSFontService,sans-serif" font-weight="400" font-size="16" transform="translate(238.944 424)">•</text><text font-family="SimHei,SimHei_MSFontService,sans-serif" font-weight="400" font-size="16" transform="translate(256.944 424)">……</text><text font-family="DengXian,DengXian_MSFontService,sans-serif" font-weight="700" font-size="19" transform="translate(248.315 303)">跨链请求</text><path d="M230.5 275.5 341.333 275.5 363.5 297.667 363.5 447.5 230.5 447.5Z" stroke="#000000" stroke-width="1.33333" stroke-miterlimit="8" fill="none" fill-rule="evenodd"/><path d="M342.5 297.5 342.5 276.5 362.5 297.5Z" stroke="#000000" stroke-width="1.33333" stroke-miterlimit="8" fill="#E7E6E6" fill-rule="evenodd"/><path d="M386.5 362.5C386.5 342.618 402.842 326.5 423 326.5 443.158 326.5 459.5 342.618 459.5 362.5 459.5 382.382 443.158 398.5 423 398.5 402.842 398.5 386.5 382.382 386.5 362.5Z" stroke="#000000" stroke-width="1.33333" stroke-miterlimit="8" fill="none" fill-rule="evenodd"/><text font-family="SimSun,SimSun_MSFontService,sans-serif" font-weight="700" font-size="13" transform="translate(396.527 359)">xStation</text><text font-family="SimSun,SimSun_MSFontService,sans-serif" font-weight="700" font-size="13" transform="translate(396.527 375)">核心合约</text><path d="M363.01 359 376.914 359.072 376.894 363.072 362.99 363ZM374.935 355.061 386.904 361.123 374.873 367.061Z"/><rect x="369.5" y="145.5" width="107" height="60" stroke="#000000" stroke-width="1.33333" stroke-miterlimit="8" fill="#EEEEEE"/><text font-family="DengXian,DengXian_MSFontService,sans-serif" font-weight="700" font-size="24" transform="translate(379.497 182)">zkPuller</text><path d="M0.666667-5.77285e-07 0.66667 4-0.666663 4-0.666667 5.77285e-07ZM0.666671 5.33333 0.666675 9.33333-0.666659 9.33333-0.666662 5.33333ZM0.666676 10.6667 0.666679 14.6667-0.666654 14.6667-0.666657 10.6667ZM0.666681 16 0.666684 20-0.666649 20-0.666653 16ZM0.666685 21.3333 0.666689 25.3333-0.666645 25.3333-0.666648 21.3333ZM0.66669 26.6667 0.666693 30.6667-0.66664 30.6667-0.666644 26.6667ZM0.666694 32 0.666698 36-0.666635 36-0.666639 32ZM0.666699 37.3333 0.666702 41.3333-0.666631 41.3333-0.666634 37.3333ZM0.666704 42.6667 0.666707 46.6667-0.666626 46.6667-0.66663 42.6667ZM0.666708 48 0.666712 52-0.666622 52-0.666625 48ZM0.666713 53.3333 0.666716 57.3333-0.666617 57.3333-0.66662 53.3333ZM0.666717 58.6667 0.666721 62.6667-0.666612 62.6667-0.666616 58.6667ZM0.666722 64 0.666726 68-0.666608 68-0.666611 64ZM0.666727 69.3333 0.66673 73.3333-0.666603 73.3333-0.666607 69.3333ZM0.666731 74.6667 0.666735 78.6667-0.666598 78.6667-0.666602 74.6667ZM0.666736 80 0.666739 84-0.666594 84-0.666597 80ZM0.666741 85.3333 0.666744 89.3333-0.666589 89.3333-0.666593 85.3333ZM0.666745 90.6667 0.666749 94.6667-0.666585 94.6667-0.666588 90.6667ZM0.66675 96 0.666753 100-0.66658 100-0.666583 96ZM0.666754 101.333 0.666758 105.333-0.666575 105.333-0.666579 101.333ZM0.666759 106.667 0.666762 110.667-0.666571 110.667-0.666574 106.667ZM0.666764 112 0.666766 114.575-0.666567 114.575-0.66657 112ZM4.0001 113.242 0.000104987 121.242-3.9999 113.242Z" transform="matrix(1 0 0 -1 423.5 326.742)"/><path d="M608.5 270.5C608.5 252.827 622.827 238.5 640.5 238.5 658.173 238.5 672.5 252.827 672.5 270.5 672.5 288.173 658.173 302.5 640.5 302.5 622.827 302.5 608.5 288.173 608.5 270.5Z" stroke="#FFFFFF" stroke-width="1.33333" stroke-miterlimit="8" fill="#00ADB5" fill-rule="evenodd"/><text font-family="Arial Black,Arial Black_MSFontService,sans-serif" font-weight="900" font-size="13" transform="translate(618.893 275)">Pilot1</text><path d="M677.399 284.006 684.823 288.292 687.003 284.516 688.977 298.241 676.104 303.394 678.284 299.618 670.86 295.332Z" fill="#B0BCDE" fill-rule="evenodd"/><path d="M692.5 319C692.5 301.051 706.827 286.5 724.5 286.5 742.173 286.5 756.5 301.051 756.5 319 756.5 336.949 742.173 351.5 724.5 351.5 706.827 351.5 692.5 336.949 692.5 319Z" stroke="#FFFFFF" stroke-width="1.33333" stroke-miterlimit="8" fill="#00ADB5" fill-rule="evenodd"/><text font-family="Arial Black,Arial Black_MSFontService,sans-serif" font-weight="900" font-size="13" transform="translate(702.84 323)">Pilot2</text><path d="M730.6 358 730.6 366.5 735 366.5 724 375 713 366.5 717.4 366.5 717.4 358Z" fill="#B0BCDE" fill-rule="evenodd"/><path d="M692.5 416C692.5 398.051 706.827 383.5 724.5 383.5 742.173 383.5 756.5 398.051 756.5 416 756.5 433.949 742.173 448.5 724.5 448.5 706.827 448.5 692.5 433.949 692.5 416Z" stroke="#FFFFFF" stroke-width="1.33333" stroke-miterlimit="8" fill="#00ADB5" fill-rule="evenodd"/><text font-family="Arial Black,Arial Black_MSFontService,sans-serif" font-weight="900" font-size="13" transform="translate(702.84 420)">Pilot3</text><path d="M693.087 440.732 685.663 445.018 687.843 448.794 674.97 443.641 676.944 429.916 679.124 433.692 686.547 429.406Z" fill="#B0BCDE" fill-rule="evenodd"/><path d="M608.5 464.5C608.5 446.827 622.827 432.5 640.5 432.5 658.173 432.5 672.5 446.827 672.5 464.5 672.5 482.173 658.173 496.5 640.5 496.5 622.827 496.5 608.5 482.173 608.5 464.5Z" stroke="#FFFFFF" stroke-width="1.33333" stroke-miterlimit="8" fill="#00ADB5" fill-rule="evenodd"/><text font-family="Arial Black,Arial Black_MSFontService,sans-serif" font-weight="900" font-size="13" transform="translate(618.893 468)">Pilot4</text><path d="M602.601 449.789 595.177 445.503 592.997 449.279 591.023 435.554 603.896 430.402 601.716 434.177 609.14 438.463Z" fill="#B0BCDE" fill-rule="evenodd"/><path d="M524.5 416C524.5 398.051 538.827 383.5 556.5 383.5 574.173 383.5 588.5 398.051 588.5 416 588.5 433.949 574.173 448.5 556.5 448.5 538.827 448.5 524.5 433.949 524.5 416Z" stroke="#FFFFFF" stroke-width="1.33333" stroke-miterlimit="8" fill="#00ADB5" fill-rule="evenodd"/><text font-family="Arial Black,Arial Black_MSFontService,sans-serif" font-weight="900" font-size="13" transform="translate(534.946 420)">Pilot5</text><path d="M549.4 376 549.4 367.5 545 367.5 556 359 567 367.5 562.6 367.5 562.6 376Z" fill="#B0BCDE" fill-rule="evenodd"/><path d="M524.5 319C524.5 301.051 538.827 286.5 556.5 286.5 574.173 286.5 588.5 301.051 588.5 319 588.5 336.949 574.173 351.5 556.5 351.5 538.827 351.5 524.5 336.949 524.5 319Z" stroke="#FFFFFF" stroke-width="1.33333" stroke-miterlimit="8" fill="#00ADB5" fill-rule="evenodd"/><text font-family="Arial Black,Arial Black_MSFontService,sans-serif" font-weight="900" font-size="13" transform="translate(534.946 323)">Pilot6</text><path d="M586.913 293.063 594.337 288.777 592.157 285.001 605.03 290.154 603.056 303.879 600.876 300.103 593.452 304.389Z" fill="#B0BCDE" fill-rule="evenodd"/><path d="M476.358 174.066 634.355 234.737 633.638 236.604 475.642 175.934ZM634.186 231.458 640.22 238.06 631.318 238.927Z"/><path d="M791.777 183.796 810.702 189.729 804.769 208.655 801.521 202.44 680.933 265.468 674.436 253.038 795.025 190.01Z" stroke="#000000" stroke-width="1.33333" stroke-miterlimit="8" fill="#D0CECE" fill-rule="evenodd"/><text font-family="DengXian,DengXian_MSFontService,sans-serif" font-weight="700" font-size="15" transform="matrix(0.886247 -0.463214 0.463214 0.886247 731.826 237)">SAP</text><rect x="818.5" y="145.5" width="106" height="60" stroke="#000000" stroke-width="1.33333" stroke-miterlimit="8" fill="#EEEEEE"/><text font-family="DengXian,DengXian_MSFontService,sans-serif" font-weight="700" font-size="24" transform="translate(830.67 182)">Relayer</text><path d="M833.5 362.5C833.5 342.618 850.066 326.5 870.5 326.5 890.935 326.5 907.5 342.618 907.5 362.5 907.5 382.382 890.935 398.5 870.5 398.5 850.066 398.5 833.5 382.382 833.5 362.5Z" stroke="#000000" stroke-width="1.33333" stroke-miterlimit="8" fill="none" fill-rule="evenodd"/><text font-family="SimSun,SimSun_MSFontService,sans-serif" font-weight="700" font-size="13" transform="translate(843.791 359)">xStation</text><text font-family="SimSun,SimSun_MSFontService,sans-serif" font-weight="700" font-size="13" transform="translate(843.791 375)">核心合约</text><path d="M0.66664-0.00591001 0.702101 3.99393-0.63118 4.00575-0.66664 0.00591001ZM0.713921 5.32721 0.749381 9.32706-0.5839 9.33888-0.61936 5.33903ZM0.761201 10.6603 0.796661 14.6602-0.53662 14.672-0.57208 10.6722ZM0.808481 15.9935 0.843941 19.9933-0.48934 20.0051-0.5248 16.0053ZM0.855761 21.3266 0.891221 25.3264-0.44206 25.3382-0.47752 21.3384ZM0.903041 26.6597 0.938501 30.6596-0.39478 30.6714-0.43024 26.6715ZM0.950321 31.9928 0.985781 35.9927-0.3475 36.0045-0.38296 32.0047ZM0.997601 37.326 1.03306 41.3258-0.30022 41.3376-0.33568 37.3378ZM1.04488 42.6591 1.08034 46.6589-0.25294 46.6707-0.2884 42.6709ZM1.09216 47.9922 1.12762 51.992-0.20566 52.0039-0.24112 48.004ZM1.13944 53.3253 1.1749 57.3252-0.158379 57.337-0.19384 53.3371ZM1.18672 58.6585 1.22218 62.6583-0.111099 62.6701-0.146559 58.6703ZM1.234 63.9916 1.26946 67.9914-0.0638192 68.0032-0.0992792 64.0034ZM1.28128 69.3247 1.31674 73.3245-0.016539 73.3364-0.0519991 69.3365ZM1.32856 74.6578 1.36402 78.6577 0.0307411 78.6695-0.00471898 74.6696ZM1.37584 79.9909 1.4113 83.9908 0.0780212 84.0026 0.0425612 80.0028ZM1.42312 85.3241 1.45858 89.3239 0.125301 89.3357 0.0898412 85.3359ZM1.4704 90.6572 1.50586 94.657 0.172581 94.6689 0.137121 90.669ZM1.51768 95.9903 1.55314 99.9902 0.219861 100.002 0.184401 96.0021ZM1.56496 101.323 1.60042 105.323 0.267142 105.335 0.231681 101.335ZM1.61224 106.657 1.6477 110.656 0.314422 110.668 0.278962 106.668ZM1.65952 111.99 1.6824 114.57 0.349115 114.582 0.326242 112.002ZM5.00378 113.207 1.07486 121.242-2.99591 113.278Z" transform="matrix(-1 0 0 1 871.575 205.5)"/><path d="M975.5 362.5C975.5 342.618 992.066 326.5 1012.5 326.5 1032.93 326.5 1049.5 342.618 1049.5 362.5 1049.5 382.382 1032.93 398.5 1012.5 398.5 992.066 398.5 975.5 382.382 975.5 362.5Z" stroke="#000000" stroke-width="1.33333" stroke-miterlimit="8" fill="none" fill-rule="evenodd"/><text font-family="SimSun,SimSun_MSFontService,sans-serif" font-weight="700" font-size="19" transform="translate(988.084 365)">合约</text><text font-family="SimSun,SimSun_MSFontService,sans-serif" font-weight="700" font-size="19" transform="translate(1025.42 365)">C</text><path d="M896 334 976.081 334 976.081 338 896 338ZM974.081 330 986.081 336 974.081 342Z"/><text font-family="DengXian,DengXian_MSFontService,sans-serif" font-weight="700" font-size="12" transform="translate(915.013 327)">函数参数</text><path d="M2.33093e-06-2 80.0814-1.99991 80.0814 2.00009-2.33093e-06 2ZM78.0814-5.99991 90.0814 0.000104987 78.0814 6.00009Z" transform="matrix(-1 0 0 1 986.081 387)"/><text font-family="DengXian,DengXian_MSFontService,sans-serif" font-weight="700" font-size="12" transform="translate(915.479 378)">结果返回</text><rect x="818.5" y="515.5" width="106" height="60" stroke="#000000" stroke-width="1.33333" stroke-miterlimit="8" fill="#EEEEEE"/><text font-family="DengXian,DengXian_MSFontService,sans-serif" font-weight="700" font-size="24" transform="translate(827.836 553)">zkPuller</text><path d="M871.167 398.494 871.203 402.494 869.87 402.506 869.833 398.506ZM871.216 403.827 871.252 407.827 869.919 407.839 869.882 403.839ZM871.264 409.16 871.301 413.16 869.968 413.172 869.931 409.172ZM871.313 414.493 871.35 418.493 870.016 418.505 869.98 414.505ZM871.362 419.826 871.398 423.826 870.065 423.838 870.029 419.839ZM871.411 425.16 871.447 429.159 870.114 429.172 870.077 425.172ZM871.46 430.493 871.496 434.492 870.163 434.505 870.126 430.505ZM871.508 435.826 871.545 439.826 870.212 439.838 870.175 435.838ZM871.557 441.159 871.594 445.159 870.26 445.171 870.224 441.171ZM871.606 446.492 871.643 450.492 870.309 450.504 870.273 446.504ZM871.655 451.825 871.691 455.825 870.358 455.837 870.321 451.837ZM871.704 457.158 871.74 461.158 870.407 461.17 870.37 457.17ZM871.752 462.491 871.789 466.491 870.456 466.503 870.419 462.503ZM871.801 467.824 871.838 471.824 870.505 471.836 870.468 467.837ZM871.85 473.158 871.887 477.157 870.553 477.17 870.517 473.17ZM871.899 478.491 871.935 482.49 870.602 482.503 870.565 478.503ZM871.948 483.824 871.984 487.824 870.651 487.836 870.614 483.836ZM871.996 489.157 872.033 493.157 870.7 493.169 870.663 489.169ZM872.045 494.49 872.082 498.49 870.749 498.502 870.712 494.502ZM872.094 499.823 872.131 503.823 870.797 503.835 870.761 499.835ZM872.143 505.156 872.179 509.156 870.846 509.168 870.81 505.168ZM875.502 507.915 871.575 515.951 867.502 507.988Z"/><path d="M817.454 546.229 646.157 498.745 646.692 496.817 817.988 544.301ZM646.641 501.992 640 496 648.778 494.282Z"/><rect x="367.5" y="515.5" width="107" height="60" stroke="#000000" stroke-width="1.33333" stroke-miterlimit="8" fill="#EEEEEE"/><text font-family="DengXian,DengXian_MSFontService,sans-serif" font-weight="700" font-size="24" transform="translate(380.318 553)">Relayer</text><path d="M497.77 560.371 478.494 555.7 483.166 536.424 486.817 542.411 602.985 471.565 610.287 483.539 494.119 554.384Z" stroke="#000000" stroke-width="1.33333" stroke-miterlimit="8" fill="#D0CECE" fill-rule="evenodd"/><text font-family="DengXian,DengXian_MSFontService,sans-serif" font-weight="700" font-size="15" transform="matrix(0.853759 -0.520668 0.520668 0.853759 537.025 526)">SAP</text><path d="M0.666569-0.011425 0.735119 3.98799-0.598018 4.01084-0.666569 0.011425ZM0.757969 5.32112 0.826519 9.32054-0.506618 9.34339-0.575168 5.34398ZM0.849369 10.6537 0.91792 14.6531-0.415218 14.6759-0.483768 10.6765ZM0.94077 15.9862 1.00932 19.9856-0.323817 20.0085-0.392368 16.0091ZM1.03217 21.3188 1.10072 25.3182-0.232417 25.341-0.300967 21.3416ZM1.12357 26.6513 1.19212 30.6507-0.141016 30.6736-0.209567 26.6742ZM1.21497 31.9839 1.28352 35.9833-0.0496161 36.0061-0.118166 32.0067ZM1.30637 37.3164 1.37492 41.3158 0.0417842 41.3387-0.0267661 37.3393ZM1.39777 42.649 1.46632 46.6484 0.133185 46.6712 0.0646343 42.6718ZM1.48917 47.9815 1.55772 51.9809 0.224585 52.0038 0.156035 48.0044ZM1.58057 53.3141 1.64912 57.3135 0.315986 57.3363 0.247435 53.3369ZM1.67197 58.6466 1.74052 62.646 0.407386 62.6689 0.338836 58.6695ZM1.76337 63.9792 1.83192 67.9786 0.498786 68.0014 0.430236 64.002ZM1.85477 69.3117 1.92332 73.3111 0.590187 73.334 0.521636 69.3346ZM1.94617 74.6443 2.01472 78.6437 0.681587 78.6665 0.613037 74.6671ZM2.03757 79.9768 2.10612 83.9762 0.772988 83.9991 0.704437 79.9997ZM2.12898 85.3094 2.19753 89.3088 0.864388 89.3316 0.795838 85.3322ZM2.22038 90.6419 2.28893 94.6413 0.955788 94.6642 0.887238 90.6648ZM2.31178 95.9745 2.38033 99.9739 1.04719 99.9967 0.978638 95.9973ZM2.40318 101.307 2.47173 105.306 1.13859 105.329 1.07004 101.33ZM2.49458 106.64 2.56313 110.639 1.22999 110.662 1.16144 106.662ZM5.87543 109.384 2.01312 117.451-2.12339 109.521Z" transform="matrix(1 0 0 -1 421.5 515.951)"/><path d="M397.608 387.049 396.918 401.096 394.905 414.998 391.699 428.768 387.36 442.16 381.954 455.109 375.607 467.489 368.441 479.244 360.393 490.248 351.714 500.31 342.401 509.434 332.515 517.494 322.241 524.301 311.59 529.784 306.144 532.001 300.644 533.834 295.081 535.288 289.516 536.363 283.938 537.06 278.301 537.25 256.186 536.687 234.773 535.184 224.491 534.118 214.716 532.802 205.441 531.361 196.722 529.73 188.75 527.972 181.519 526.086 175.152 524.069 169.769 521.979 165.279 519.767 163.523 518.087 164.905 516.641 166.55 518.215 166.301 518.04 170.614 520.165 170.534 520.13 175.846 522.193 175.786 522.172 182.099 524.172 182.049 524.157 189.237 526.032 189.2 526.023 197.137 527.773 197.106 527.767 205.793 529.392 205.763 529.387 215.013 530.824 214.993 530.821 224.743 532.134 224.712 532.13 234.962 533.193 234.929 533.19 256.304 534.69 256.26 534.688 278.322 535.25 278.263 535.251 283.826 535.063 283.735 535.07 289.235 534.383 289.17 534.393 294.67 533.331 294.606 533.345 300.106 531.907 300.043 531.926 305.481 530.114 305.42 530.136 310.795 527.949 310.714 527.986 321.277 522.548 321.182 522.604 331.369 515.854 331.29 515.912 341.102 507.912 341.034 507.973 350.284 498.911 350.227 498.972 358.852 488.972 358.802 489.035 366.802 478.097 366.755 478.167 373.88 466.479 373.844 466.544 380.157 454.231 380.124 454.302 385.499 441.427 385.47 441.504 389.783 428.192 389.76 428.273 392.948 414.586 392.932 414.669 394.932 400.857 394.923 400.951 395.61 386.951ZM161.957 520.925 160 512.198 168.156 515.869Z" fill="#393E46"/><text font-family="DengXian,DengXian_MSFontService,sans-serif" font-weight="700" font-size="11" transform="translate(430.168 244)">监控并拉</text><text font-family="DengXian,DengXian_MSFontService,sans-serif" font-weight="700" font-size="11" transform="translate(430.168 257)">取消息</text><text font-family="DengXian,DengXian_MSFontService,sans-serif" font-weight="700" font-size="11" transform="translate(816.524 475)">监控并拉</text><text font-family="DengXian,DengXian_MSFontService,sans-serif" font-weight="700" font-size="11" transform="translate(816.524 488)">取消息</text><path d="M596 360.5 614.75 323 664.25 323 683 360.5 664.25 398 614.75 398Z" fill="#222831" fill-rule="evenodd"/><text fill="#FFFFFF" font-family="DengXian,DengXian_MSFontService,sans-serif" font-weight="700" font-size="15" transform="translate(624.798 357)">共识</text><text fill="#FFFFFF" font-family="DengXian,DengXian_MSFontService,sans-serif" font-weight="700" font-size="15" transform="translate(624.798 374)">机制</text><text font-family="DengXian,DengXian_MSFontService,sans-serif" font-weight="700" font-size="24" transform="translate(141.6 177)">以太坊</text><text font-family="DengXian,DengXian_MSFontService,sans-serif" font-weight="700" font-size="24" transform="translate(1075.7 307)">币</text><text font-family="DengXian,DengXian_MSFontService,sans-serif" font-weight="700" font-size="24" transform="translate(1075.7 336)">安</text><text font-family="DengXian,DengXian_MSFontService,sans-serif" font-weight="700" font-size="24" transform="translate(1075.7 365)">智</text><text font-family="DengXian,DengXian_MSFontService,sans-serif" font-weight="700" font-size="24" transform="translate(1075.7 394)">能</text><text font-family="DengXian,DengXian_MSFontService,sans-serif" font-weight="700" font-size="24" transform="translate(1075.7 423)">链</text><text fill="#00ADB5" font-family="DengXian,DengXian_MSFontService,sans-serif" font-weight="700" font-size="15" transform="translate(224.807 523)">合约</text><text fill="#00ADB5" font-family="DengXian,DengXian_MSFontService,sans-serif" font-weight="700" font-size="15" transform="translate(254.14 523)">C</text><text fill="#00ADB5" font-family="DengXian,DengXian_MSFontService,sans-serif" font-weight="700" font-size="15" transform="translate(263.307 523)">执行结果</text></g></svg>